<?xml version="1.0" encoding="UTF-8"?>
<svg width="16px" height="16px" viewBox="0 0 16 16" version="1.1" xmlns="http://www.w3.org/2000/svg" xmlns:xlink="http://www.w3.org/1999/xlink">
    <!-- Generator: Sketch 64 (93537) - https://sketch.com -->
    <title>编组 4</title>
    <desc>Created with Sketch.</desc>
    <g id="页面-1" stroke="none" stroke-width="1" fill="none" fill-rule="evenodd">
        <g id="画板" transform="translate(-93.000000, -198.000000)" fill="#D9D9D9">
            <g id="编组-4" transform="translate(93.000000, 198.000000)">
                <path d="M2,0 L5,0 C6.1045695,-2.02906125e-16 7,0.8954305 7,2 L7,7 L7,7 L2,7 C0.8954305,7 1.3527075e-16,6.1045695 0,5 L0,2 C-1.3527075e-16,0.8954305 0.8954305,2.02906125e-16 2,0 Z" id="矩形备份-9"></path>
                <path d="M2,9 L7,9 L7,9 L7,14 C7,15.1045695 6.1045695,16 5,16 L2,16 C0.8954305,16 1.3527075e-16,15.1045695 0,14 L0,11 C-1.3527075e-16,9.8954305 0.8954305,9 2,9 Z" id="矩形备份-10"></path>
                <path d="M11,0 L14,0 C15.1045695,-2.02906125e-16 16,0.8954305 16,2 L16,5 C16,6.1045695 15.1045695,7 14,7 L9,7 L9,7 L9,2 C9,0.8954305 9.8954305,2.02906125e-16 11,0 Z" id="矩形备份-11"></path>
                <path d="M9,9 L14,9 C15.1045695,9 16,9.8954305 16,11 L16,14 C16,15.1045695 15.1045695,16 14,16 L11,16 C9.8954305,16 9,15.1045695 9,14 L9,9 L9,9 Z" id="矩形备份-12"></path>
            </g>
        </g>
    </g>
</svg>